<svg width="20" height="20" viewBox="0 0 20 20" fill="none" xmlns="http://www.w3.org/2000/svg">
<path d="M14.1667 9.16667C13.7123 9.16667 13.2749 9.2394 12.8655 9.37386C12.2828 8.01208 11.1968 6.91693 9.84143 6.32227C10.4501 5.51893 11.4144 5 12.5 5C14.3409 5 15.8333 6.49238 15.8333 8.33333C15.8333 8.72016 15.7674 9.09159 15.6463 9.43702C15.1865 9.26232 14.6877 9.16667 14.1667 9.16667Z" fill="white"/>
<path fill-rule="evenodd" clip-rule="evenodd" d="M12.5 1.875C12.8452 1.875 13.125 2.15482 13.125 2.5V3.33333C13.125 3.67851 12.8452 3.95833 12.5 3.95833C12.1548 3.95833 11.875 3.67851 11.875 3.33333V2.5C11.875 2.15482 12.1548 1.875 12.5 1.875Z" fill="white"/>
<path fill-rule="evenodd" clip-rule="evenodd" d="M17.0667 3.76673C17.3108 4.01081 17.3108 4.40654 17.0667 4.65061L16.4774 5.23987C16.2334 5.48395 15.8376 5.48395 15.5936 5.23987C15.3495 4.99579 15.3495 4.60006 15.5936 4.35599L16.1828 3.76673C16.4269 3.52265 16.8226 3.52265 17.0667 3.76673Z" fill="white"/>
<path fill-rule="evenodd" clip-rule="evenodd" d="M18.9584 8.33333C18.9584 8.67851 18.6786 8.95833 18.3334 8.95833L17.5 8.95833C17.1549 8.95833 16.875 8.67851 16.875 8.33333C16.875 7.98816 17.1549 7.70833 17.5 7.70833L18.3334 7.70833C18.6786 7.70833 18.9584 7.98816 18.9584 8.33333Z" fill="white"/>
<path opacity="0.4" d="M1.66669 11.6667C1.66669 14.8883 4.27836 17.5 7.50002 17.5H14.1667C16.4679 17.5 18.3334 15.6345 18.3334 13.3333C18.3334 11.5532 17.2171 10.0338 15.6463 9.43702C15.1865 9.26232 14.6878 9.16667 14.1667 9.16667C13.7123 9.16667 13.2749 9.2394 12.8655 9.37386C12.2828 8.01208 11.1968 6.91693 9.84146 6.32227C9.12478 6.00784 8.33278 5.83333 7.50002 5.83333C4.27836 5.83333 1.66669 8.44501 1.66669 11.6667Z" fill="white"/>
</svg>
