<svg width="20" height="20" viewBox="0 0 20 20" fill="none" xmlns="http://www.w3.org/2000/svg">
<path opacity="0.4" d="M1.66669 7.5C1.66669 10.7217 4.27836 13.3333 7.50002 13.3333H14.1667C16.4679 13.3333 18.3334 11.4679 18.3334 9.16667C18.3334 6.86548 16.4679 5 14.1667 5C13.7123 5 13.2749 5.07274 12.8655 5.2072C11.9747 3.12535 9.90771 1.66667 7.50002 1.66667C4.27836 1.66667 1.66669 4.27834 1.66669 7.5Z" fill="white"/>
<path d="M7.08337 14.5833C7.08337 15.5038 6.52373 15.8333 5.83337 15.8333C5.14302 15.8333 4.58337 15.5038 4.58337 14.5833C4.58337 13.6629 5.83337 12.5 5.83337 12.5C5.83337 12.5 7.08337 13.6629 7.08337 14.5833Z" fill="white"/>
<path d="M15.4167 14.5833C15.4167 15.5038 14.857 15.8333 14.1667 15.8333C13.4763 15.8333 12.9167 15.5038 12.9167 14.5833C12.9167 13.6629 14.1667 12.5 14.1667 12.5C14.1667 12.5 15.4167 13.6629 15.4167 14.5833Z" fill="white"/>
<path d="M11.25 17.0833C11.25 18.0038 10.6904 18.3333 10 18.3333C9.30964 18.3333 8.75 18.0038 8.75 17.0833C8.75 16.1629 10 15 10 15C10 15 11.25 16.1629 11.25 17.0833Z" fill="white"/>
</svg>
