<svg width="24" height="24" viewBox="0 0 24 24" fill="none" xmlns="http://www.w3.org/2000/svg">
<circle opacity="0.4" cx="12" cy="12" r="6.69767" fill="white"/>
<path fill-rule="evenodd" clip-rule="evenodd" d="M12 0C12.4624 0 12.8372 0.374831 12.8372 0.837209V1.95349C12.8372 2.41587 12.4624 2.7907 12 2.7907C11.5376 2.7907 11.1628 2.41587 11.1628 1.95349V0.837209C11.1628 0.374831 11.5376 0 12 0Z" fill="white"/>
<path fill-rule="evenodd" clip-rule="evenodd" d="M12 21.2093C12.4624 21.2093 12.8372 21.5841 12.8372 22.0465V23.1628C12.8372 23.6252 12.4624 24 12 24C11.5376 24 11.1628 23.6252 11.1628 23.1628V22.0465C11.1628 21.5841 11.5376 21.2093 12 21.2093Z" fill="white"/>
<path fill-rule="evenodd" clip-rule="evenodd" d="M20.4852 3.5146C20.8122 3.84155 20.8122 4.37164 20.4852 4.69859L19.6959 5.48792C19.369 5.81487 18.8389 5.81487 18.5119 5.48792C18.185 5.16097 18.185 4.63087 18.5119 4.30392L19.3013 3.5146C19.6282 3.18765 20.1583 3.18765 20.4852 3.5146Z" fill="white"/>
<path fill-rule="evenodd" clip-rule="evenodd" d="M5.48799 18.5119C5.81494 18.8388 5.81494 19.3689 5.48799 19.6959L4.69866 20.4852C4.37171 20.8121 3.84162 20.8121 3.51467 20.4852C3.18772 20.1582 3.18772 19.6282 3.51467 19.3012L4.304 18.5119C4.63095 18.1849 5.16104 18.1849 5.48799 18.5119Z" fill="white"/>
<path fill-rule="evenodd" clip-rule="evenodd" d="M24 12C24 12.4624 23.6252 12.8372 23.1628 12.8372L22.0465 12.8372C21.5841 12.8372 21.2093 12.4624 21.2093 12C21.2093 11.5376 21.5841 11.1628 22.0465 11.1628L23.1628 11.1628C23.6252 11.1628 24 11.5376 24 12Z" fill="white"/>
<path fill-rule="evenodd" clip-rule="evenodd" d="M2.79071 12C2.79071 12.4624 2.41588 12.8372 1.9535 12.8372L0.837222 12.8372C0.374845 12.8372 1.32038e-05 12.4624 1.32139e-05 12C1.3224e-05 11.5376 0.374845 11.1628 0.837222 11.1628L1.9535 11.1628C2.41588 11.1628 2.79071 11.5376 2.79071 12Z" fill="white"/>
<path fill-rule="evenodd" clip-rule="evenodd" d="M20.4853 20.4855C20.1583 20.8125 19.6282 20.8125 19.3013 20.4855L18.512 19.6962C18.185 19.3692 18.185 18.8392 18.512 18.5122C18.8389 18.1853 19.369 18.1853 19.6959 18.5122L20.4853 19.3015C20.8122 19.6285 20.8122 20.1586 20.4853 20.4855Z" fill="white"/>
<path fill-rule="evenodd" clip-rule="evenodd" d="M5.48796 5.48825C5.16101 5.8152 4.63092 5.8152 4.30397 5.48825L3.51464 4.69892C3.18769 4.37197 3.18769 3.84188 3.51464 3.51493C3.84159 3.18798 4.37168 3.18798 4.69863 3.51493L5.48796 4.30426C5.81491 4.63121 5.81491 5.1613 5.48796 5.48825Z" fill="white"/>
</svg>
